<svg id="Calque_1" data-name="Calque 1" xmlns="http://www.w3.org/2000/svg" viewBox="0 0 360.82 380.36"><path d="M531.33,494.52c20,14.83,50.74,27.59,73.92,13.42a36.1,36.1,0,0,0,8.83-7.87c4.11-4.71,7.59-12.23,10.77-17.68,2.15,1.64,9.25,6.94,11.29,8.45a179.46,179.46,0,0,0,22.77,13.67c15.6,9.16,35.86,14.21,52,4.28a49.58,49.58,0,0,0,8-6c1.21-1.12,2.46-2.57,3.66-3.73.71-.8,2.66-3.23,3.39-4.12a15.14,15.14,0,0,0,1.08-1.45c2-3,9.57-13.78,11.74-17,.87,1.26,9.43,13.78,10.27,14.89,8.55,11.47,22.07,25.16,36.11,26.53,16.92,1.22,27.9-17.45,34.82-30.65a68.29,68.29,0,0,0,20.22-18.62c17.28-24.25-1.69-44.49-21.48-58.71l-4.53-3.39c.7-11.66.51-23.75-1.51-35.22-2.76-15.43-9.33-35.47-28.62-31.48C771.74,342,759.6,350.53,749,357.32c-1.25-2.47-5.63-11.78-6.88-14.11a121.54,121.54,0,0,0-16.18-24.08c-9.3-10.2-20.44-18.53-32.32-7.25-16.51,16.18-23.27,42.22-31.62,63.58l-10.85-19.71c-6.59-11.75-19.92-32.43-32.59-36.62-10.93-3.43-18.14,25-20,33.19l-2.23,9.59-9.85-1.9c-.74-.15-2.24-.42-3-.54-8.15-1.46-32.82-3.7-35.72,5.17-1.09,6.6,2.27,13.19,5.62,19.24,6.3,11.6,15.31,25.59,22.49,36.72l-14.48.38c-.36,0-1,.08-1.52.14-16,1.95-38,6.83-46.49,21.85-9.17,18.18,5.86,38.59,18,51.55Zm0,0c-13.12-14.11-29.58-33-23.39-53.75,6-18.21,25.7-28.83,42.67-35,1.26-.44,2.53-.86,3.83-1.26l2-.58c.69-.19,1.27-.36,2.14-.55l-5.6,14.26c-6.64-7.41-13.26-14.89-17.91-23.93-3.73-7.66-7.09-15.26-7.85-24a26.63,26.63,0,0,1,15.16-27.21c12.82-6,27.13-5.32,40.62-3.73,2.46.3,5.3.82,7.76,1.3l-12.09,7.69c1.16-5,2.48-10,4.14-15,3.74-10.88,8.74-22.52,18.78-29.64,9.56-6.83,21.92-5.7,31.51.3,11.87,7.31,20.34,18.29,28,29.42,2.5,3.74,4.87,7.6,7.09,11.52l1,1.82-18.58,1.28c8.71-22.92,23-57.31,50.88-61.25,26.27-2.63,45,23.39,56.44,43.3.78,1.4,1.55,2.81,2.3,4.25l1.1,2.17c.38.76.71,1.42,1.13,2.34L747.61,334c10-6.38,21.09-12.12,33.09-14.22,23.24-4.23,40.16,9.41,47.63,30.79,5.66,16,7,32.67,6.62,49.41l-.11,2.32-4.28-9c10.73,7.8,21.29,16.91,28.34,28.28,16.15,25.09,7.92,51.93-12.75,71.23a89.24,89.24,0,0,1-13,10.3l3.68-3.94c-4.88,9.2-10.67,18.34-19.14,26.27-26.41,24.38-56.59,10.92-77.44-12.73a115.77,115.77,0,0,1-10-12.73l17.15-.07c-1.16,1.63-3.34,4.91-4.5,6.53-1.37,1.64-3.7,4.65-5.13,6.23-14.3,15.86-32.82,23.87-54.21,21.58a99.7,99.7,0,0,1-34.72-11.39c-9-5.16-16.77-11.84-24-19.13-.78-.84-2.37-2.51-3.13-3.37l12.65-1.4-2.48,3c-29.22,34.18-70.69,14.73-100.56-7.42Z" transform="translate(-506.6 -158)"/><path d="M567.12,215.59a44.44,44.44,0,0,1,6.52,2.69c2.25,3.29,8,11.26,10.39,14.62l10.43,14.6a52.79,52.79,0,0,1,.46,7,52.07,52.07,0,0,1-6.48-2.71L578,237.2c-2.43-3.38-8-11.33-10.46-14.57a43.44,43.44,0,0,1-.43-7Z" transform="translate(-506.6 -158)"/><path d="M683.89,158a55.83,55.83,0,0,1,3.74,7.3c-.09,4.86,0,16.86,0,21.89v21.9a68.32,68.32,0,0,1-3.7,7.29,68.32,68.32,0,0,1-3.7-7.29v-21.9c0-5.09,0-17,0-21.89a55.83,55.83,0,0,1,3.74-7.3Z" transform="translate(-506.6 -158)"/><path d="M807.8,218.81a43.61,43.61,0,0,1-.47,7c-2.39,3.12-8.08,11-10.5,14.25s-8.23,11.24-10.46,14.27a50.36,50.36,0,0,1-6.47,2.57,53.5,53.5,0,0,1,.5-7c2.2-3,8.19-11.16,10.46-14.27,2.43-3.32,8.14-11,10.43-14.29a42,42,0,0,1,6.51-2.54Z" transform="translate(-506.6 -158)"/><path d="M660.11,364.58a25.8,25.8,0,0,1,4.1.75c.23.73.58,1.41.86,2.12.89,2.11,2.69,6.34,3.58,8.44l.89,2.11a30.28,30.28,0,0,1-2.27,3.45,30.73,30.73,0,0,1-4.06-.76l-.9-2.11-3.57-8.44c-.32-.7-.57-1.42-.93-2.1a26.15,26.15,0,0,1,2.3-3.46Z" transform="translate(-506.6 -158)"/><path d="M738.82,494.44c-1.06.16-2.68.18-3.76.24-.35-.89-1.44-3-1.86-3.89s-1.5-3.05-1.9-3.88c.7-.81,1.7-2.06,2.46-2.8,1-.14,2.66-.17,3.72-.22.41.81,1.48,3,1.9,3.87s1.43,3,1.92,3.86c-.7.82-1.71,2.08-2.48,2.82Z" transform="translate(-506.6 -158)"/><path d="M590.12,405.87a34.67,34.67,0,0,1,8.13-1.95c5.15,1.59,10,3,14.63,6.29,5.2,3.54,6.84,9.65,2.56,14.62-4.61,5.2-11,7.77-17.07,10.41a46,46,0,0,1-8.25-.86c1.7-2,3.66-4.1,5.47-6,4.15-1.72,8.56-3.68,12.06-6.33,1.13-.86,2.63-2.23,2.85-3.35,0-.94-1-1.75-2-2.51a26.13,26.13,0,0,0-5.66-2.93,51.76,51.76,0,0,0-6.59-2.13c-1-.81-2-1.64-3-2.52s-2.23-1.91-3.12-2.74Z" transform="translate(-506.6 -158)"/><path d="M722.18,358.45c1.36,2.65,2.71,5.27,4.14,7.87,2.27,4.22,4.32,6.81,5.94,11.31,2,4.11,5.88,12.22,11.06,11.59,2.31-.5,4.22-2.39,6.29-3.56a152.59,152.59,0,0,1,15.63-8.72c5.73-2.64,11.22-5.07,17.75-5.82,12.65-1.14,14,9.25,9.88,18.71a130,130,0,0,1-6.53,14.31c-3.12,3.88-6.66,7.83-11.15,10.19a6.77,6.77,0,0,1-3.37.86c2.56-1.39,3.79-4.18,5-6.65a64.54,64.54,0,0,0,3-7.93,116.84,116.84,0,0,0,5.34-11.51c1.14-2.86,3-6.91,2.21-9.83-.21-.45-.28-.42-.81-.63-3.25-.7-7,.6-10.45,1.74a82.13,82.13,0,0,0-7.69,3.24A169.63,169.63,0,0,0,748.81,395a17.4,17.4,0,0,1-2.68,1.2c-11.19,3.18-17.91-9.13-21.55-17.54-1.65-3.38-1.68-7.5-2.15-11.15a71.63,71.63,0,0,1-.25-9Z" transform="translate(-506.6 -158)"/><path d="M711.26,457.71a34.09,34.09,0,0,1,2.82-14.2c4.69-6.8,12.6-11.47,21-9.24,9.67,2.5,16.4,10.49,22.54,17.6,4.44,4.74,11.78,12.85,18.69,11.85a7.09,7.09,0,0,0,3.66-2.31c2.39-1.37,4.74-4.16,6.38-6.67.65-.94,1.23-1.92,1.81-2.95.58,4.69-.14,12.84-4.2,16.1-9.07,7.74-20.26.58-27-6-6.14-5.73-11.35-13.86-18.54-18.17-7-4.47-13.54-2.9-18.3,4.19a55.74,55.74,0,0,0-8.9,9.84Z" transform="translate(-506.6 -158)"/></svg>