<svg id="Calque_1" data-name="Calque 1" xmlns="http://www.w3.org/2000/svg" viewBox="0 0 212 225"><defs><style>.cls-1{stroke:#000;stroke-miterlimit:10;}.cls-2{fill:#fff;}</style></defs><rect class="cls-1" x="0.5" y="0.5" width="211" height="224" rx="17.13"/><path class="cls-2" d="M651.25,323.69c5.91-.08,10.35,5.3,10.83,11.19l1.58,19.58a19.46,19.46,0,0,1-8.84,17.36l-8.16,2.73a3.31,3.31,0,0,0-2,4.46c3.76,8.73,14.36,32.42,23.13,43.49,2.61,3.3,5.46,9.19,10.46,4.19l6.3-4.84a12,12,0,0,1,13.8-.56L719.16,433a11,11,0,0,1,3.93,15.49l-10.15,16.15a13.34,13.34,0,0,1-16.46,5.2c-24.63-10.4-82.54-44.63-76.69-135.26.24-3.75,3.79-9.1,7.46-9.9C632.06,323.65,639.6,323.85,651.25,323.69Z" transform="translate(-577.25 -271.69)"/><path class="cls-2" d="M679.25,362.69s25.42,10.75,23.09,38.06a2.72,2.72,0,0,0,.81,2.26c.64.57,1.61.84,2.84-.59a2.69,2.69,0,0,0,.63-1.58c.35-4.81.78-28.94-23.42-41.66a2.82,2.82,0,0,0-2.11-.21C679.51,359.45,677.13,360.57,679.25,362.69Z" transform="translate(-577.25 -271.69)"/><path class="cls-2" d="M695,341.81c8.73,4.74,37.47,23.2,33.22,58.88,0,0-1.28,4.86-4.35,2.43a5,5,0,0,1-1.81-4.41c.69-7.28.67-33.14-30.84-51,0,0-4.14-2.12-1.73-5A4.44,4.44,0,0,1,695,341.81Z" transform="translate(-577.25 -271.69)"/><path class="cls-2" d="M707.65,330c9.18,5.43,40.43,26.35,37.37,64.63a10.56,10.56,0,0,0,1.67,6.76c1.63,2.42,4.12,3.74,6.75-3.58a7.27,7.27,0,0,0,.31-1.22c.91-5.76,5.58-47.47-45-75.63,0,0-9.3-3.05-5.86,4A12.09,12.09,0,0,0,707.65,330Z" transform="translate(-577.25 -271.69)"/></svg>