<svg id="Calque_1" data-name="Calque 1" xmlns="http://www.w3.org/2000/svg" viewBox="0 0 241 241"><defs><style>.cls-1{fill:#fff;}</style></defs><path d="M562.75,384.19a120.5,120.5,0,0,1,241,0" transform="translate(-562.75 -263.69)"/><path d="M803.75,384.19a120.5,120.5,0,1,1-241,0" transform="translate(-562.75 -263.69)"/><path class="cls-1" d="M748,335.78c4.75,9.63,24.52,65.43-32.25,80.91-1.91.52-1,3-1,5L716,471.11a4.39,4.39,0,0,1-1.6,3.41c-6.1,4.94-28.72,20.31-54,.6a4.4,4.4,0,0,1-1.72-3.48V452.1a4.37,4.37,0,0,0-3.63-4.31c-9.3-1.6-34.42-8.37-50.95-35.91-14.55-24.26,54.84,52.1,57,21.83l1.64-15c.14-2-1.73-2.32-3.6-3-13.41-4.65-63.5-25.86-32.49-75.16a4.4,4.4,0,0,0,.51-3.65c-3.09-10-15.07-54.7,27.73-23.06a4.38,4.38,0,0,0,3,.85c7.14-.63,35.93-2.89,56-.1a4.44,4.44,0,0,0,3.15-.75c7.85-5.54,45.64-30.28,30.68,18.7" transform="translate(-562.75 -263.69)"/></svg>