<svg id="Calque_1" data-name="Calque 1" xmlns="http://www.w3.org/2000/svg" viewBox="0 0 918.72 742.7"><defs><style>.cls-1{stroke:#000;stroke-miterlimit:10;stroke-width:3.87px;}</style></defs><path d="M235.08,633.66c8-111.91,63-474.39,189.24-500.47,49.14-9.48,87.28,33.64,111.72,70.41,26.08,39.63,45.07,83.26,62.09,127.36,36.71,98.16,62.46,199.86,81.62,302.7-14.85-43.11-29.83-88.47-45-131.39-24.93-67.95-118.43-353.54-204.21-337.61-96.23,21.78-172.09,374-195.48,469Z" transform="translate(-235.08 -12.89)"/><path d="M487.49,633.66c8.05-111.91,63-474.39,189.25-500.47,49.13-9.48,87.28,33.64,111.71,70.41,26.09,39.63,45.07,83.26,62.1,127.36,36.71,98.16,62.45,199.86,81.62,302.7-14.86-43.11-29.84-88.47-45-131.39C862.25,434.32,768.75,148.73,683,164.66c-96.23,21.78-172.1,374-195.49,469Z" transform="translate(-235.08 -12.89)"/><path d="M709.12,633.66c8-111.91,63-474.39,189.25-500.47,49.13-9.48,87.28,33.64,111.71,70.41,26.09,39.63,45.07,83.26,62.1,127.36,36.71,98.16,62.45,199.86,81.62,302.7-14.86-43.11-29.84-88.47-45-131.39-24.94-67.95-118.44-353.54-204.21-337.61-96.23,21.78-172.1,374-195.49,469Z" transform="translate(-235.08 -12.89)"/><ellipse class="cls-1" cx="454.65" cy="297.21" rx="20.38" ry="22.27"/><ellipse class="cls-1" cx="454.58" cy="24.21" rx="20.38" ry="22.27"/><ellipse class="cls-1" cx="465.15" cy="718.49" rx="20.38" ry="22.28"/></svg>