<svg id="Calque_1" data-name="Calque 1" xmlns="http://www.w3.org/2000/svg" viewBox="0 0 368.23 329.96"><path d="M572.86,495.33c-15.74-2.21-29.61-13-36.69-27.14-3.27-6.17-4.69-13.07-6.49-19.68-6.14-25.42-7.8-52.24-3.37-78.18a103.44,103.44,0,0,1,3.32-13.58c13-43.12,35.56-83.31,68.06-114.87,18.09-17.54,39.2-32.26,63-41.17,85.44-32,185.45,21,219.54,102.83,25.53,59.32,7,129.23-31.72,178.51a151.12,151.12,0,0,1-12.9,14.2c-29.65,28.54-60.76,34.83-93.61,7.19C723,487.16,709.7,466.56,694.36,448c-5.29-6.36-10.51-12.28-17-16.83-4.89-3.43-9.47-6.9-15.56-5.92-13.61,1.89-23.94,22.36-31.53,33-6.69,10-14,20.29-23.71,27.58-9.62,7.14-21.73,11.26-33.69,9.47Zm0,0c18.35,2.63,34.56-9.28,42.8-24.93,11.48-19.65,14.19-49.1,35.29-61.33,12.62-7.5,28.72-4.84,39.91,3.83,7.81,6.09,14.5,13.68,20.6,21,18.79,21.62,43.48,65,73.79,65.19,18-.75,34.87-17.3,46-30.92,31.82-40.62,49.23-98.18,31.52-148.28-19.61-55-72-96.75-129.58-105-44.77-7.12-88.38,11.28-120,42.95-30.08,29.63-52.62,68.09-62.77,109.23-7.12,24.77-13.33,50-13.21,76.05a136.29,136.29,0,0,0,1,17.43c2.57,17.35,17.1,32.46,34.72,34.8Z" transform="translate(-523.81 -191.26)"/><path d="M821.56,453.46c-4.22,4.09-8.83,9.2-15.25,10.05a25.66,25.66,0,0,1-17.87-7.43c-9.79-9.45-9.79-26.29,0-35.74,9.45-9.79,26.29-9.79,35.73,0a25.33,25.33,0,0,1,7.4,17.87c-.93,6.39-5.91,11-10,15.25Zm0,0c4.15-3.83,3.86-10.43,2.61-15.25.19-9.58-8.28-18.06-17.86-17.86-9.59-.2-18.06,8.27-17.87,17.86-.19,9.55,8.28,18.12,17.87,17.83,4.8,1.16,11.42,1.59,15.25-2.58Z" transform="translate(-523.81 -191.26)"/><path d="M836.8,362c-4.22,4.09-8.82,9.2-15.24,10a25.67,25.67,0,0,1-17.87-7.44c-9.79-9.44-9.79-26.28,0-35.73,9.45-9.79,26.29-9.79,35.73,0a25.32,25.32,0,0,1,7.4,17.87c-.93,6.39-5.92,11-10,15.25Zm0,0c4.16-3.83,3.87-10.43,2.62-15.25.19-9.59-8.28-18.06-17.86-17.87-9.59-.19-18.06,8.28-17.87,17.87-.19,9.55,8.28,18.11,17.87,17.82,4.8,1.17,11.42,1.59,15.24-2.57Z" transform="translate(-523.81 -191.26)"/><path d="M791.06,285.72c-4.22,4.1-8.83,9.2-15.25,10.06a25.69,25.69,0,0,1-17.87-7.44c-9.79-9.45-9.79-26.29,0-35.73,9.45-9.79,26.29-9.8,35.74,0a25.33,25.33,0,0,1,7.4,17.86c-.94,6.4-5.92,11-10,15.25Zm0,0c4.15-3.83,3.86-10.43,2.61-15.25.2-9.58-8.27-18.06-17.86-17.86-9.59-.19-18.06,8.28-17.86,17.86-.2,9.55,8.27,18.12,17.86,17.83,4.81,1.17,11.42,1.59,15.25-2.58Z" transform="translate(-523.81 -191.26)"/><path d="M699.57,285.72c-4.22,4.1-8.83,9.2-15.25,10.06a25.67,25.67,0,0,1-17.87-7.44c-9.79-9.45-9.79-26.29,0-35.73,9.45-9.79,26.29-9.8,35.73,0a25.29,25.29,0,0,1,7.4,17.86c-.93,6.4-5.92,11-10,15.25Zm0,0c4.15-3.83,3.86-10.43,2.61-15.25.19-9.58-8.28-18.06-17.86-17.86-9.59-.19-18.06,8.28-17.87,17.86-.19,9.55,8.28,18.12,17.87,17.83,4.8,1.17,11.42,1.59,15.25-2.58Z" transform="translate(-523.81 -191.26)"/></svg>