<svg id="Calque_1" data-name="Calque 1" xmlns="http://www.w3.org/2000/svg" viewBox="0 0 380.64 402.29"><defs><style>.cls-1{fill:#fff;}</style></defs><path d="M538.91,539.85c13.35-3.5,27.36-6.23,40.93-8.71,3.4-.37,6.81.29,10.23.09H825.4c13.7,2.53,27.35,5.23,40.92,8.62-13.57,3.39-27.22,6.09-40.92,8.62H590.07c-3.42-.2-6.83.46-10.23.09-13.56-2.48-27.57-5.2-40.93-8.71Z" transform="translate(-488.76 -146.38)"/><path d="M860.58,221.06c3.5,13.34,6.23,27.35,8.71,40.92.37,3.4-.29,6.82-.1,10.23,0,6.35,0,24.09,0,30.7,0,59,0,145.83,0,204.63-2.53,13.71-5.22,27.35-8.61,40.93-3.39-13.58-6.09-27.22-8.62-40.93V302.91c0-6.59,0-24.28,0-30.7.2-3.41-.46-6.83-.09-10.23,2.48-13.56,5.2-27.57,8.71-40.92Z" transform="translate(-488.76 -146.38)"/><path d="M869.19,229.67a152,152,0,0,1-15.34,6.82c-2.61.8-5.07,2.52-7.68,1.86-4.56-.17-13.23,0-17.9-.06H726a200.23,200.23,0,0,1-20.46-8.62A200.15,200.15,0,0,1,726,221.06H828.27c4.67-.05,13.3.1,17.9-.07,2.69-.65,5,1,7.68,1.87a152,152,0,0,1,15.34,6.81Z" transform="translate(-488.76 -146.38)"/><path d="M712.35,223.93c2.31,9.86,4.27,19.8,6,29.75.92,5,1.71,9.92,2.56,14.88a18.6,18.6,0,0,1,.23,3.72c-.29,3.71-.22,7.43-.22,11.16l-3.85-7.18c12.21,8.69,26.2,21.28,29.38,36.78s-7.94,26.9-20.81,32.93a91.41,91.41,0,0,1-10.59,4.29l5.86-7.91-1.11,36.93-8.62-8.88c1.61,0,56.17,0,55.45,0,1.41,2.61,3.49,6.66,5.07,9.16,5.18,8.13,13.63,20,23.45,21.43,8.17.47,14.11-9.2,17.82-15.67a32.61,32.61,0,0,1,3.89-7c1-1.51,4.05-6.07,5.13-7.65,4.48.74,9.22,1.54,13.68,2.35,10.13,1.8,20.24,3.76,30.29,6-6.71,1.52-13.45,2.89-20.19,4.17s-13.46,2.48-20.2,3.61l7.16-4.75c-.52,2-1,4-1.68,6a34.76,34.76,0,0,1-3,5.57c-4.4,7.88-10.08,15.88-18.19,20.68-23.49,13.69-45-11-55.27-29.89l-.83-1.54,7.69,4.72H702.35c.31-10.18,1.25-41.45,1.57-51.78l5.68-1.93c7.45-2.67,21.9-8,20-17.69-2.37-10.08-13.68-19.65-22-25.62l-3.83-2.67c0-3.74,0-8.22,0-11.94-.09-2.49-.43-5,0-7.44,2.48-14.94,5.15-29.87,8.61-44.63Z" transform="translate(-488.76 -146.38)"/><path d="M711.23,548.47A214.51,214.51,0,0,1,703,525.85c-1.12-2.54-.19-4.9-.37-7.54V488.15l5.52,8c-15.14-6.3-41.1-19.73-33.46-40,5.76-12.93,22.17-18.27,34-22.24l-6.06,8.23V428.56c0-4.55,0-9.09,0-13.64-.65-2.28.59-4.55,1.21-6.82,2.21-6.94,4.58-13.68,7.44-20.47,2.86,6.79,5.24,13.53,7.45,20.47.62,2.27,1.86,4.54,1.2,6.82,0,7.82,0,19.33,0,27.28v6.32c-9.54,3.15-21.14,6-28.16,12.73-.75.88-1.19,1.39-1.18,2.1a7.86,7.86,0,0,0,2.25,3.63c5.63,5.8,14,10,21.57,13.13l5.52,2.17c0,8.11-.14,33.59.17,41.69a207.74,207.74,0,0,1-8.79,24.5Z" transform="translate(-488.76 -146.38)"/><path d="M702.3,379.9c-15.52,3.17-31.19,5.52-46.86,7.7l-3.52-6.06-1.66-2.86a34.46,34.46,0,0,1-2.62-6.27c-3.75-8.6-8.75-17.93-15.45-24.14-2.32-2-4.43-3.49-7.26-3.62-6.12.31-11.14,7.69-14.58,12.9-5.62,8.86-9.94,19.84-13.83,30.08H538.91l8.62-8.61v83.29c.1,6.9-.18,24.46.1,31.23.45,3.47-.5,6.94-1,10.41-2.27,13.88-4.72,27.76-7.73,41.64-3-13.88-5.46-27.76-7.73-41.64-.49-3.47-1.43-6.94-1-10.41.29-6.67,0-24.25.1-31.23,0-2.66,0-93.09,0-91.91,3.91,0,54.81,0,60.31,0L582.56,376c6.42-15.93,15.17-37.67,31.79-46.09,24.09-11,41,17.18,49.12,35.58a31.63,31.63,0,0,1,3.68,11.05L659.7,371c14.27,2.6,28.5,5.43,42.6,8.91Z" transform="translate(-488.76 -146.38)"/><path d="M495.83,315.38c14.31-1.68,29.32-3.22,43.65-4.57L535.11,314a150,150,0,0,1,11.53-33.37c5.39-10.95,12.56-20.89,25.18-24.31,15-4.05,27.3,6.81,35,18.1,8.06,11.75,13.64,25.12,18.44,38l-8.09-5.65h44.9l-8.6,9.1-2.56-45.5-.32-5.73L656,262l.92-.45c7.77-4,21.05-12.11,22.1-21.18C678.75,230.08,659.6,222,650.92,218c-.17-.55.12-60.55,0-63l8.62,8.62H498.7l8.62-8.46c-.36,16.56-.85,47.5-1,63.61-3,30.95-6.46,61.94-10.45,92.8-2.73-29.35-4.84-58.82-6.75-88.22a80.14,80.14,0,0,1-.25-9.8c.41-6.52.39-13,.54-19.57.14-5.74.76-42.61.87-47.6H668.15c.11,3.07-.08,61,0,66.06l-5-7.84c10.55,5,22,11,28.92,21.63,9,14.05,2.36,28.86-9.16,38.68A86.71,86.71,0,0,1,664.56,277l-1.46.7,5-8.32c.37,6.38,2.75,49.27,3.06,54.59h-60C605,307.72,598.89,289.93,587,277.47c-3.64-3.57-8.33-6.4-12.9-3.54-14.37,10.21-22.94,26.81-30.28,42.79l-1.54,3.49-2.83-.26c-14.33-1.34-29.34-2.9-43.65-4.57Z" transform="translate(-488.76 -146.38)"/><path class="cls-1" d="M579.12,315.83" transform="translate(-488.76 -146.38)"/></svg>